<?xml version="1.0" encoding="UTF-8"?>
<!DOCTYPE svg  PUBLIC '-//W3C//DTD SVG 1.1//EN'  'http://www.w3.org/Graphics/SVG/1.1/DTD/svg11.dtd'>
<svg width="250px" height="89px" clip-rule="evenodd" fill-rule="evenodd" image-rendering="optimizeQuality" shape-rendering="geometricPrecision" text-rendering="geometricPrecision" version="1.1" viewBox="0 0 159 56" xml:space="preserve" xmlns="http://www.w3.org/2000/svg">
 <defs>
  <style type="text/css">
   <![CDATA[
    .fil0 {fill:#FEFEFE}
    .fil1 {fill:#FEFEFE;fill-rule:nonzero}
   ]]>
  </style>
 </defs>
  <path class="fil0" d="m0 22v-22h10c11 0 15 1 18 2 6 3 10 8 11 14 1 2 1 9 0 11-1 8-9 15-17 16-2 1-6 1-12 1h-10v-22zm20 14c3-1 5-2 7-4 6-5 5-18-2-22-3-2-5-2-11-2l-6-1v15 15h5c3 0 6-1 7-1z"/>
  <path class="fil0" d="m39 42l3-3 1-2h15 14l2 3c0 2 1 3 1 4h-19-19l2-2z"/>
  <path class="fil0" d="m47 25v-3-4h9 9l1 3 2 4h-21z"/>
  <path class="fil0" d="m42 5c-1-1-2-3-3-3l-2-2h11 10l2 4c0 1 1 3 1 3s-4 1-9 1h-8l-2-3z"/>
   <polygon class="fil0" points="66 0 75 0 90 40 83 44"/>
   <polygon class="fil0" points="103 14 96 6 84 41 90 44"/>
   <rect class="fil0" x="83" y="37" width="7.3396" height="6.8128"/>
  <polygon class="fil0" points="99 0 113 0 121 10 115 19"/>
  <polygon class="fil0" points="100 56 114 56 123 44 116 34"/>
  <polygon class="fil0" points="121 27 135 27 153 0 140 0"/>
  <polygon class="fil0" points="159 56 144 56 121 27 135 27"/>
  <path class="fil1" d="m1 53v2h-1v-6h2c1 0 2 0 2 1v1 1c0 1-1 1-2 1h-1zm0-1h1 1v-1-1h-1-1v2zm9 1s0 1-1 2h-2-1c-1-1-1-2-1-2v-1c0-1 0-2 1-2 0-1 1-1 1-1 1 0 2 0 2 1 1 0 1 1 1 2v1zm-1-1c0-1 0-1-1-2h-1c-1 1-1 1-1 2v1s0 1 1 1h1c1 0 1-1 1-1v-1zm2 3v-6h2s1 0 1 1c1 0 1 1 1 2v1s0 1-1 2h-1-2zm1-5v4h1 1v-1-1-2h-1-1zm8 3v2h-2-2v-2-1-2c1-1 1-1 2-1s1 0 2 1v1h-1v-1h-1-1v2 1 1h1 1v-1h1zm4 1h-2v1h-1l2-6h1l2 6h-1l-1-1zm-2-1h2l-1-3-1 3zm7 1v-1h-1c0-1-1-1-1-1-1 0-1-1-1-1 0-1 0-1 1-2h1 2v2h-1v-1h-1c-1 0-1 0-1 1h1v1h2v2 1h-2-1c-1-1-1-1-1-2h1v1h1 1zm6-4h-1v5h-2v-5h-1v-1h4v1zm6 4h-2l-1 1h-1l2-6h1l2 6h-1v-1zm-2-1h2l-1-3-1 3zm8 2h-1l-2-4v4h-1v-6h1l2 4v-4h1v6zm2 0v-6h1c1 0 2 0 2 1 1 0 1 1 1 2v1s0 1-1 2h-2-1zm1-5v4h1c1 0 1-1 1-1v-1c0-1 0-1-1-2h-1zm10 0h-2v5h-1v-5h-2v-1h5v1zm5-1v4c0 1 0 1-1 2h-1-2c-1-1-1-1-1-2v-4h1v4c0 1 0 1 1 1h1c1 0 1 0 1-1v-4h1zm5 1h-2v5h-1v-5h-2v-1h5v1zm5 3s0 1-1 2h-2-1c-1-1-1-2-1-2v-1c0-1 0-2 1-2 0-1 1-1 1-1 1 0 2 0 2 1 1 0 1 1 1 2v1zm-1-1c0-1 0-1-1-2h-1-1v2 1 1h1 1c1 0 1-1 1-1v-1zm3 1v2h-1v-6h2s1 0 1 1c1 0 1 0 1 1v1h-1l1 1v1 1h-1v-1-1h-1-1zm0-1h1l1-1s0-1-1-1h-1v2zm5 3h-1v-6h1v6zm4-1h-2v1h-1l2-6h1l2 6h-1l-1-1zm-1-1h1l-1-3v3zm5 1h2v1h-4v-6h2v5zm6 0v-1h-1c-1-1-1-1-2-1v-1-2h2 1c1 1 1 1 1 2h-1s0-1-1-1h-1v1s1 0 1 1h1c1 1 1 1 1 2 0 0 0 1-1 1h-1-2c0-1-1-1 0-2h1v1h1 1z"/>
  <polygon class="fil0" points="100 56 114 56 123 44 116 34"/>
</svg>
