<?xml version="1.0" encoding="UTF-8"?>
<!DOCTYPE svg PUBLIC "-//W3C//DTD SVG 1.1//EN" "http://www.w3.org/Graphics/SVG/1.1/DTD/svg11.dtd">
<!-- Creator: CorelDRAW X7 -->
<svg xmlns="http://www.w3.org/2000/svg" xml:space="preserve" width="219px" height="78px" version="1.1" style="shape-rendering:geometricPrecision; text-rendering:geometricPrecision; image-rendering:optimizeQuality; fill-rule:evenodd; clip-rule:evenodd"
viewBox="0 0 177 63"
 xmlns:xlink="http://www.w3.org/1999/xlink">
 <defs>
  <style type="text/css">
   <![CDATA[
    .str0 {stroke:#FEFEFE;stroke-width:0.107976}
    .fil0 {fill:#FEFEFE}
    .fil1 {fill:#FEFEFE;fill-rule:nonzero}
   ]]>
  </style>
 </defs>
 <g id="Layer_x0020_1">
  <metadata id="CorelCorpID_0Corel-Layer"/>
  <path class="fil0 str0" d="M0 25l0 -25 11 0c13,0 17,1 21,3 5,2 10,8 12,15 0,2 1,9 0,12 -2,9 -10,17 -19,18 -2,1 -7,1 -14,1l-11 0 0 -24 0 0zm22 15c4,-1 6,-2 8,-4 7,-6 6,-20 -2,-25 -3,-2 -5,-2 -12,-2l-7 -1 0 17 0 16 6 0c3,0 6,0 7,-1l0 0z"/>
  <path class="fil0 str0" d="M43 47c2,-1 3,-3 4,-4l1 -2 17 0 16 0 1 4c1,2 2,4 2,4 0,0 -10,0 -22,0l-21 0 2 -2z"/>
  <path class="fil0 str0" d="M53 28c0,0 0,-2 0,-4l0 -4 10 0 10 0 1 4c1,2 2,4 1,4 0,0 -22,0 -22,0l0 0z"/>
  <path class="fil0 str0" d="M47 6c-1,-1 -3,-3 -4,-4l-2 -2 12 0 12 0 1 4c1,2 2,4 2,4 0,0 -5,0 -10,0l-9 0 -2 -2 0 0z"/>
  <g id="_3219131417488">
   <polygon class="fil0 str0" points="73,0 84,0 100,45 92,49 "/>
   <polygon class="fil0 str0" points="114,15 107,6 94,45 101,49 "/>
   <rect class="fil0 str0" x="92" y="41" width="8.17908" height="7.59202"/>
  </g>
  <polygon class="fil0 str0" points="111,0 126,0 135,12 128,22 "/>
  <polygon class="fil0 str0" points="111,63 128,63 137,49 129,38 "/>
  <polygon class="fil0 str0" points="134,30 150,30 171,0 156,0 "/>
  <polygon class="fil0 str0" points="177,63 161,63 134,30 150,30 "/>
  <path class="fil1 str0" d="M2 58l0 3 -1 0 0 -8 3 0c1,0 1,0 2,1 0,0 0,1 0,2 0,0 0,1 0,1 -1,1 -1,1 -2,1l-2 0zm0 -1l2 0c0,0 1,0 1,0 0,-1 0,-1 0,-1 0,-1 0,-1 0,-1 0,-1 -1,-1 -1,-1l-2 0 0 3zm5 1c0,-1 1,-1 1,-2 1,-1 1,-1 2,-1 1,0 2,0 2,1 1,1 1,1 1,2l0 0c0,1 0,2 -1,2 0,1 -1,1 -2,1 -1,0 -1,0 -2,-1 0,0 -1,-1 -1,-2l0 0zm2 0c0,1 0,1 0,2 0,0 1,0 1,0 1,0 1,0 1,0 1,-1 1,-1 1,-2l0 0c0,0 0,-1 -1,-1 0,-1 0,-1 -1,-1 0,0 -1,0 -1,1 0,0 0,1 0,1l0 0zm5 0c0,-1 0,-1 1,-2 0,-1 1,-1 1,-1 1,0 1,0 1,0 1,0 1,1 1,1l0 -3 1 0 0 8 -1 0 0 -1c0,1 0,1 -1,1 0,0 0,0 -1,0 0,0 -1,0 -1,-1 -1,0 -1,-1 -1,-2l0 0zm1 0c0,1 0,1 0,2 1,0 1,0 2,0 0,0 0,0 0,0 1,0 1,0 1,0l0 -3c0,0 0,-1 -1,-1 0,0 0,0 0,0 -1,0 -1,0 -2,1 0,0 0,1 0,1l0 0zm8 2c1,0 1,0 1,0 0,0 1,0 1,-1l1 0 0 0c0,1 -1,1 -1,2 -1,0 -1,0 -2,0 -1,0 -1,0 -2,-1 0,0 -1,-1 -1,-2l0 0c0,-1 1,-1 1,-2 1,-1 1,-1 2,-1 1,0 2,0 2,1 0,0 1,1 1,1l0 0 -1 0c0,0 -1,0 -1,-1 0,0 0,0 -1,0 0,0 -1,0 -1,1 0,0 0,0 0,1l0 0c0,1 0,1 0,2 0,0 1,0 1,0zm8 1c0,0 0,0 0,0 -1,-1 -1,-1 -1,-1 0,0 0,1 0,1 -1,0 -1,0 -1,0 -1,0 -2,0 -2,0 0,-1 0,-1 0,-2 0,0 0,-1 0,-1 1,0 1,0 2,0l1 0 0 -1c0,0 0,-1 0,-1 0,0 0,0 -1,0 0,0 0,0 -1,0 0,0 0,1 0,1l-1 0 0 0c0,-1 0,-1 1,-1 0,-1 1,-1 1,-1 1,0 2,0 2,1 0,0 1,0 1,1l0 3c0,0 0,0 0,1 0,0 0,0 0,0l-1 0zm-2 -1c0,0 1,0 1,0 0,0 0,0 0,-1l0 -1 -1 0c0,0 -1,0 -1,1 0,0 0,0 0,0 0,1 0,1 0,1 0,0 0,0 1,0zm8 0c0,-1 0,-1 -1,-1 0,0 0,0 -1,0 0,-1 -1,-1 -1,-1 -1,0 -1,-1 -1,-1 0,-1 0,-1 1,-1 0,-1 1,-1 1,-1 1,0 2,0 2,1 1,0 1,0 1,1l0 0 -1 0c0,0 0,0 -1,-1 0,0 0,0 -1,0 0,0 0,0 0,0 -1,0 -1,1 -1,1 0,0 0,0 1,0 0,1 0,1 1,1 0,0 1,0 1,0 1,1 1,1 1,1 0,1 0,1 -1,2 0,0 -1,0 -2,0 0,0 -1,0 -1,0 -1,-1 -1,-1 -1,-2l0 0 1 0c0,1 0,1 1,1 0,0 0,0 0,0 1,0 1,0 1,0 1,0 1,0 1,0zm4 -6l0 1 1 0 0 1 -1 0 0 4c0,0 0,0 0,0 0,0 0,0 0,0 0,0 0,0 1,0 0,0 0,0 0,0l0 1c0,0 0,0 0,0 -1,0 -1,0 -1,0 0,0 -1,0 -1,0 0,0 0,-1 0,-1l0 -4 -1 0 0 -1 1 0 0 -1 1 0zm5 5c0,0 0,-1 0,-1 0,0 1,-1 1,-1 0,-1 0,-1 0,-1 -1,0 -1,-1 -1,-1 0,-1 0,-1 1,-1 0,-1 1,-1 1,-1 1,0 1,0 2,1 0,0 0,0 0,1 0,0 0,0 0,1 0,0 0,0 -1,1l0 0 1 2c1,0 1,0 1,-1 0,0 0,0 0,-1l1 0c0,1 0,1 0,2 0,0 -1,1 -1,1l1 1 0 0 -1 0 -1 0c0,0 0,0 -1,0 0,0 0,0 -1,0 -1,0 -1,0 -2,0 0,-1 0,-1 0,-2zm2 1c1,0 1,0 1,0 0,0 1,0 1,0l-2 -2 0 0c-1,0 -1,0 -1,0 0,1 0,1 0,1 0,0 0,1 0,1 0,0 1,0 1,0zm-1 -5c0,0 0,0 1,1 0,0 0,0 0,0l1 0c0,0 0,0 0,-1 0,0 0,0 0,0 0,0 0,-1 0,-1 0,0 0,0 -1,0 0,0 0,0 0,0 -1,0 -1,1 -1,1zm15 -1l-3 0 0 7 -1 0 0 -7 -3 0 0 -1 7 0 0 1zm4 6c0,1 0,1 0,1 -1,0 -1,0 -1,0 -1,0 -2,0 -2,0 0,-1 -1,-1 -1,-2l0 -4 2 0 0 4c0,0 0,1 0,1 0,0 0,0 1,0 0,0 0,0 1,0 0,0 0,0 0,-1l0 -4 1 0 0 6 -1 0 0 -1zm4 -6l0 1 2 0 0 1 -2 0 0 4c0,0 0,0 1,0 0,0 0,0 0,0 0,0 0,0 0,0 0,0 0,0 0,0l1 1c0,0 -1,0 -1,0 0,0 0,0 0,0 -1,0 -1,0 -1,0 -1,0 -1,-1 -1,-1l0 -4 -1 0 0 -1 1 0 0 -1 1 0zm3 4c0,-1 0,-1 0,-2 1,-1 2,-1 2,-1 1,0 2,0 2,1 1,1 1,1 1,2l0 0c0,1 0,2 -1,2 0,1 -1,1 -2,1 0,0 -1,0 -2,-1 0,0 0,-1 0,-2l0 0zm1 0c0,1 0,1 0,2 0,0 1,0 1,0 1,0 1,0 2,0 0,-1 0,-1 0,-2l0 0c0,0 0,-1 0,-1 -1,-1 -1,-1 -2,-1 0,0 -1,0 -1,1 0,0 0,1 0,1l0 0zm8 -2l0 0c0,0 -1,0 -1,0 0,1 0,1 0,1l0 4 -2 0 0 -6 1 0 1 1c0,0 0,0 0,-1 0,0 1,0 1,0 0,0 0,0 0,0 0,0 0,0 1,0l-1 1zm3 5l-1 0 0 -6 1 0 0 6zm0 -7l-1 0 0 -1 1 0 0 1zm5 7c0,0 0,0 0,0 0,-1 0,-1 0,-1 0,0 -1,1 -1,1 0,0 -1,0 -1,0 -1,0 -1,0 -1,0 -1,-1 -1,-1 -1,-2 0,0 0,-1 1,-1 0,0 1,0 2,0l1 0 0 -1c0,0 0,-1 0,-1 -1,0 -1,0 -1,0 -1,0 -1,0 -1,0 0,0 -1,1 -1,1l-1 0 0 0c0,-1 1,-1 1,-1 0,-1 1,-1 2,-1 0,0 1,0 1,1 1,0 1,0 1,1l0 3c0,0 0,0 0,1 0,0 0,0 0,0l-1 0zm-2 -1c1,0 1,0 1,0 1,0 1,0 1,-1l0 -1 -1 0c-1,0 -1,0 -1,1 -1,0 -1,0 -1,0 0,1 0,1 0,1 1,0 1,0 1,0zm6 1l-1 0 0 -8 1 0 0 8zm5 -1c0,-1 0,-1 0,-1 0,0 -1,0 -1,0 -1,-1 -2,-1 -2,-1 0,0 0,-1 0,-1 0,-1 0,-1 0,-1 1,-1 1,-1 2,-1 1,0 1,0 1,1 1,0 1,0 1,1l0 0 -1 0c0,0 0,0 0,-1 -1,0 -1,0 -1,0 -1,0 -1,0 -1,0 0,0 0,1 0,1 0,0 0,0 0,0 0,1 0,1 1,1 1,0 1,0 2,0 0,1 0,1 0,1 0,1 0,1 0,2 -1,0 -1,0 -2,0 -1,0 -2,0 -2,0 0,-1 -1,-1 -1,-2l0 0 1 0c0,1 1,1 1,1 0,0 0,0 1,0 0,0 1,0 1,0 0,0 0,0 0,0z"/>
  <polygon class="fil0 str0" points="111,63 127,63 138,49 129,38 "/>
 </g>
</svg>
