<?xml version="1.0" encoding="UTF-8"?>
<!DOCTYPE svg PUBLIC "-//W3C//DTD SVG 1.1//EN" "http://www.w3.org/Graphics/SVG/1.1/DTD/svg11.dtd">
<!-- Creator: CorelDRAW X7 -->
<svg xmlns="http://www.w3.org/2000/svg" xml:space="preserve" width="1475px" height="525px" version="1.1" style="shape-rendering:geometricPrecision; text-rendering:geometricPrecision; image-rendering:optimizeQuality; fill-rule:evenodd; clip-rule:evenodd"
viewBox="0 0 936 333"
 xmlns:xlink="http://www.w3.org/1999/xlink">
 <defs>
  <style type="text/css">
   <![CDATA[
    .str0 {stroke:#FEFEFE;stroke-width:0.571451}
    .fil2 {fill:none;fill-rule:nonzero}
    .fil0 {fill:#FEFEFE}
    .fil1 {fill:#FEFEFE;fill-rule:nonzero}
   ]]>
  </style>
 </defs>
 <g id="Layer_x0020_1">
  <metadata id="CorelCorpID_0Corel-Layer"/>
  <path class="fil0 str0" d="M0 130l0 -129 56 0c71,0 91,3 112,13 30,15 55,45 63,79 4,15 5,52 2,68 -10,47 -54,87 -102,95 -11,2 -36,3 -74,3l-57 0 0 -129 0 0zm118 82c19,-4 32,-11 43,-21 35,-33 29,-108 -11,-131 -19,-11 -29,-14 -67,-15l-35 -1 0 87 0 87 29 -1c17,-1 34,-3 41,-5l0 0z"/>
  <path class="fil0 str0" d="M230 248c7,-6 15,-15 19,-21l8 -10 85 1 86 0 7 19c4,11 8,20 8,21 0,1 -51,1 -113,1l-112 0 12 -11z"/>
  <path class="fil0 str0" d="M280 150c0,-1 0,-11 -1,-23l0 -22 53 0 52 0 8 22c5,11 8,21 8,22 -1,1 -120,2 -120,1l0 0z"/>
  <path class="fil0 str0" d="M248 32c-4,-7 -13,-17 -18,-22l-10 -9 62 1 62 0 8 20c4,11 7,20 6,21 0,1 -23,2 -51,2l-50 0 -9 -13 0 0z"/>
  <g id="_3219354395168">
   <polygon class="fil0 str0" points="389,1 443,0 531,238 488,258 "/>
   <polygon class="fil0 str0" points="605,81 567,34 495,240 532,258 "/>
   <rect class="fil0 str0" x="488" y="218" width="43.287" height="40.18"/>
  </g>
  <polygon class="fil0 str0" points="585,2 666,2 713,61 677,115 "/>
  <polygon class="fil0 str0" points="590,331 675,331 726,260 683,202 "/>
  <polygon class="fil0 str0" points="711,161 795,160 903,2 828,2 "/>
  <polygon class="fil0 str0" points="936,332 852,333 711,160 794,159 "/>
  <path class="fil1" d="M8 313l0 13 -7 0 0 -36 13 0c4,0 7,1 9,3 3,2 4,5 4,8 0,4 -1,7 -4,9 -2,2 -5,3 -9,3l-6 0zm0 -6l6 0c2,0 4,0 4,-1 1,-2 2,-3 2,-5 0,-1 -1,-3 -2,-4 0,-1 -2,-2 -4,-2l-6 0 0 12z"/>
  <path id="1" class="fil1" d="M58 311c0,5 -1,8 -3,11 -3,3 -6,5 -11,5 -4,0 -7,-2 -10,-5 -2,-3 -3,-6 -3,-11l0 -6c0,-5 1,-9 3,-12 3,-3 6,-4 10,-4 5,0 8,1 11,4 2,3 3,7 3,12l0 6zm-6 -7c0,-2 -1,-5 -2,-7 -2,-1 -3,-2 -6,-2 -2,0 -4,1 -5,2 -1,2 -2,5 -2,7l0 7c0,3 1,5 2,7 1,2 3,3 5,3 3,0 5,-1 6,-3 1,-2 2,-4 2,-7l0 -7z"/>
  <path id="2" class="fil1" d="M64 326l0 -36 11 0c4,0 8,1 10,4 3,3 4,6 4,11l0 6c0,4 -1,8 -4,11 -2,3 -6,4 -10,4l-11 0zm6 -31l0 26 5 0c2,0 4,-1 5,-3 2,-2 3,-4 3,-7l0 -6c0,-3 -1,-5 -3,-7 -1,-2 -3,-3 -5,-3l-5 0z"/>
  <path id="3" class="fil1" d="M120 314l0 0c0,4 -1,7 -3,9 -3,3 -6,4 -10,4 -4,0 -7,-2 -10,-5 -2,-2 -3,-6 -3,-11l0 -7c0,-4 1,-8 3,-11 3,-3 6,-4 10,-4 4,0 7,1 9,3 3,3 4,6 4,10l0 0 -7 0c0,-2 0,-4 -1,-5 -1,-2 -3,-2 -5,-2 -2,0 -4,1 -5,2 -1,2 -2,4 -2,7l0 7c0,3 1,6 2,7 1,2 3,3 5,3 2,0 4,-1 5,-2 1,-1 1,-3 1,-5l7 0z"/>
  <path id="4" class="fil1" d="M143 318l-12 0 -2 8 -7 0 11 -36 7 0 12 36 -7 0 -2 -8zm-11 -5l9 0 -4 -15 0 0 -5 15z"/>
  <path id="5" class="fil1" d="M173 317c0,-2 -1,-3 -2,-4 -1,-1 -2,-1 -4,-2 -4,-1 -7,-3 -9,-5 -2,-1 -3,-4 -3,-7 0,-3 1,-5 3,-7 2,-2 5,-3 9,-3 4,0 7,1 9,3 2,2 3,5 3,8l0 0 -6 0c0,-1 -1,-3 -2,-4 -1,-1 -2,-1 -4,-1 -2,0 -3,0 -4,1 -1,1 -2,2 -2,3 0,2 1,3 2,3 1,1 3,2 5,3 4,1 7,2 9,4 2,2 2,5 2,8 0,3 -1,5 -3,7 -2,2 -5,3 -9,3 -4,0 -7,-1 -9,-3 -3,-2 -4,-5 -4,-9l0 0 6 0c0,2 1,4 2,5 1,1 3,1 5,1 2,0 3,0 4,-1 1,-1 2,-2 2,-3z"/>
  <polygon id="6" class="fil1" points="208,295 198,295 198,326 191,326 191,295 182,295 182,290 208,290 "/>
  <path id="7" class="fil1" d="M241 318l-12 0 -2 8 -7 0 12 -36 7 0 11 36 -7 0 -2 -8zm-10 -5l8 0 -4 -15 0 0 -4 15z"/>
  <polygon id="8" class="fil1" points="280,326 274,326 260,301 260,301 260,326 253,326 253,290 260,290 273,315 274,315 274,290 280,290 "/>
  <path id="9" class="fil1" d="M287 326l0 -36 11 0c4,0 7,1 10,4 3,3 4,6 4,11l0 6c0,4 -1,8 -4,11 -3,3 -6,4 -10,4l-11 0zm6 -31l0 26 5 0c2,0 4,-1 5,-3 2,-2 2,-4 2,-7l0 -6c0,-3 0,-5 -2,-7 -1,-2 -3,-3 -5,-3l-5 0z"/>
  <polygon id="10" class="fil1" points="352,295 343,295 343,326 336,326 336,295 327,295 327,290 352,290 "/>
  <path id="11" class="fil1" d="M382 290l0 24c0,4 -1,7 -3,9 -3,3 -6,4 -10,4 -4,0 -7,-1 -10,-4 -2,-2 -3,-5 -3,-9l0 -24 6 0 0 24c0,2 1,4 2,5 1,1 3,2 5,2 2,0 4,-1 5,-2 1,-1 2,-3 2,-5l0 -24 6 0z"/>
  <polygon id="12" class="fil1" points="411,295 402,295 402,326 395,326 395,295 386,295 386,290 411,290 "/>
  <path id="13" class="fil1" d="M441 311c0,5 -1,8 -4,11 -2,3 -6,5 -10,5 -4,0 -7,-2 -10,-5 -2,-3 -4,-6 -4,-11l0 -6c0,-5 2,-9 4,-12 3,-3 6,-4 10,-4 4,0 8,1 10,4 3,3 4,7 4,12l0 6zm-6 -7c0,-2 -1,-5 -2,-7 -2,-1 -4,-2 -6,-2 -2,0 -4,1 -5,2 -1,2 -2,5 -2,7l0 7c0,3 1,5 2,7 1,2 3,3 5,3 3,0 4,-1 6,-3 1,-2 2,-4 2,-7l0 -7z"/>
  <path id="14" class="fil1" d="M453 312l0 14 -7 0 0 -36 13 0c4,0 7,0 9,2 2,2 3,5 3,8 0,2 0,4 -1,5 -1,2 -2,3 -4,4 2,0 3,1 4,3 1,1 1,3 1,5l0 3c0,1 1,2 1,3 0,1 1,2 1,3l0 0 -7 0c0,0 -1,-1 -1,-3 0,-1 0,-2 0,-3l0 -3c0,-2 -1,-3 -2,-4 0,-1 -2,-1 -3,-1l-7 0zm0 -6l6 0c2,0 3,-1 4,-1 1,-1 2,-3 2,-4 0,-2 -1,-3 -2,-4 -1,-1 -2,-2 -4,-2l-6 0 0 11z"/>
  <polygon id="15" class="fil1" points="485,326 478,326 478,290 485,290 "/>
  <path id="16" class="fil1" d="M509 318l-11 0 -3 8 -6 0 11 -36 7 0 11 36 -6 0 -3 -8zm-10 -5l9 0 -4 -15 -1 0 -4 15z"/>
  <polygon id="17" class="fil1" points="528,321 543,321 543,326 521,326 521,290 528,290 "/>
  <path id="18" class="fil1" d="M565 317c0,-2 0,-3 -1,-4 -1,-1 -3,-1 -5,-2 -4,-1 -7,-3 -9,-5 -2,-1 -3,-4 -3,-7 0,-3 1,-5 3,-7 3,-2 6,-3 9,-3 4,0 7,1 9,3 3,2 4,5 4,8l0 0 -7 0c0,-1 -1,-3 -2,-4 -1,-1 -2,-1 -4,-1 -2,0 -3,0 -4,1 -1,1 -2,2 -2,3 0,2 1,3 2,3 1,1 3,2 5,3 4,1 7,2 9,4 2,2 3,5 3,8 0,3 -1,5 -4,7 -2,2 -5,3 -9,3 -3,0 -6,-1 -9,-3 -3,-2 -4,-5 -4,-9l0 0 6 0c0,2 1,4 2,5 2,1 3,1 5,1 2,0 4,0 5,-1 1,-1 1,-2 1,-3z"/>
  <path id="19" class="fil2 str0" d="M8 313l0 13 -7 0 0 -36 13 0c4,0 7,1 9,3 3,2 4,5 4,8 0,4 -1,7 -4,9 -2,2 -5,3 -9,3l-6 0zm0 -6l6 0c2,0 4,0 4,-1 1,-2 2,-3 2,-5 0,-1 -1,-3 -2,-4 0,-1 -2,-2 -4,-2l-6 0 0 12z"/>
  <path id="20" class="fil2 str0" d="M58 311c0,5 -1,8 -3,11 -3,3 -6,5 -11,5 -4,0 -7,-2 -10,-5 -2,-3 -3,-6 -3,-11l0 -6c0,-5 1,-9 3,-12 3,-3 6,-4 10,-4 5,0 8,1 11,4 2,3 3,7 3,12l0 6zm-6 -7c0,-2 -1,-5 -2,-7 -2,-1 -3,-2 -6,-2 -2,0 -4,1 -5,2 -1,2 -2,5 -2,7l0 7c0,3 1,5 2,7 1,2 3,3 5,3 3,0 5,-1 6,-3 1,-2 2,-4 2,-7l0 -7z"/>
  <path id="21" class="fil2 str0" d="M64 326l0 -36 11 0c4,0 8,1 10,4 3,3 4,6 4,11l0 6c0,4 -1,8 -4,11 -2,3 -6,4 -10,4l-11 0zm6 -31l0 26 5 0c2,0 4,-1 5,-3 2,-2 3,-4 3,-7l0 -6c0,-3 -1,-5 -3,-7 -1,-2 -3,-3 -5,-3l-5 0z"/>
  <path id="22" class="fil2 str0" d="M120 314l0 0c0,4 -1,7 -3,9 -3,3 -6,4 -10,4 -4,0 -7,-2 -10,-5 -2,-2 -3,-6 -3,-11l0 -7c0,-4 1,-8 3,-11 3,-3 6,-4 10,-4 4,0 7,1 9,3 3,3 4,6 4,10l0 0 -7 0c0,-2 0,-4 -1,-5 -1,-2 -3,-2 -5,-2 -2,0 -4,1 -5,2 -1,2 -2,4 -2,7l0 7c0,3 1,6 2,7 1,2 3,3 5,3 2,0 4,-1 5,-2 1,-1 1,-3 1,-5l7 0z"/>
  <path id="23" class="fil2 str0" d="M143 318l-12 0 -2 8 -7 0 11 -36 7 0 12 36 -7 0 -2 -8zm-11 -5l9 0 -4 -15 0 0 -5 15z"/>
  <path id="24" class="fil2 str0" d="M173 317c0,-2 -1,-3 -2,-4 -1,-1 -2,-1 -4,-2 -4,-1 -7,-3 -9,-5 -2,-1 -3,-4 -3,-7 0,-3 1,-5 3,-7 2,-2 5,-3 9,-3 4,0 7,1 9,3 2,2 3,5 3,8l0 0 -6 0c0,-1 -1,-3 -2,-4 -1,-1 -2,-1 -4,-1 -2,0 -3,0 -4,1 -1,1 -2,2 -2,3 0,2 1,3 2,3 1,1 3,2 5,3 4,1 7,2 9,4 2,2 2,5 2,8 0,3 -1,5 -3,7 -2,2 -5,3 -9,3 -4,0 -7,-1 -9,-3 -3,-2 -4,-5 -4,-9l0 0 6 0c0,2 1,4 2,5 1,1 3,1 5,1 2,0 3,0 4,-1 1,-1 2,-2 2,-3z"/>
  <polygon id="25" class="fil2 str0" points="208,295 198,295 198,326 191,326 191,295 182,295 182,290 208,290 "/>
  <path id="26" class="fil2 str0" d="M241 318l-12 0 -2 8 -7 0 12 -36 7 0 11 36 -7 0 -2 -8zm-10 -5l8 0 -4 -15 0 0 -4 15z"/>
  <polygon id="27" class="fil2 str0" points="280,326 274,326 260,301 260,301 260,326 253,326 253,290 260,290 273,315 274,315 274,290 280,290 "/>
  <path id="28" class="fil2 str0" d="M287 326l0 -36 11 0c4,0 7,1 10,4 3,3 4,6 4,11l0 6c0,4 -1,8 -4,11 -3,3 -6,4 -10,4l-11 0zm6 -31l0 26 5 0c2,0 4,-1 5,-3 2,-2 2,-4 2,-7l0 -6c0,-3 0,-5 -2,-7 -1,-2 -3,-3 -5,-3l-5 0z"/>
  <polygon id="29" class="fil2 str0" points="352,295 343,295 343,326 336,326 336,295 327,295 327,290 352,290 "/>
  <path id="30" class="fil2 str0" d="M382 290l0 24c0,4 -1,7 -3,9 -3,3 -6,4 -10,4 -4,0 -7,-1 -10,-4 -2,-2 -3,-5 -3,-9l0 -24 6 0 0 24c0,2 1,4 2,5 1,1 3,2 5,2 2,0 4,-1 5,-2 1,-1 2,-3 2,-5l0 -24 6 0z"/>
  <polygon id="31" class="fil2 str0" points="411,295 402,295 402,326 395,326 395,295 386,295 386,290 411,290 "/>
  <path id="32" class="fil2 str0" d="M441 311c0,5 -1,8 -4,11 -2,3 -6,5 -10,5 -4,0 -7,-2 -10,-5 -2,-3 -4,-6 -4,-11l0 -6c0,-5 2,-9 4,-12 3,-3 6,-4 10,-4 4,0 8,1 10,4 3,3 4,7 4,12l0 6zm-6 -7c0,-2 -1,-5 -2,-7 -2,-1 -4,-2 -6,-2 -2,0 -4,1 -5,2 -1,2 -2,5 -2,7l0 7c0,3 1,5 2,7 1,2 3,3 5,3 3,0 4,-1 6,-3 1,-2 2,-4 2,-7l0 -7z"/>
  <path id="33" class="fil2 str0" d="M453 312l0 14 -7 0 0 -36 13 0c4,0 7,0 9,2 2,2 3,5 3,8 0,2 0,4 -1,5 -1,2 -2,3 -4,4 2,0 3,1 4,3 1,1 1,3 1,5l0 3c0,1 1,2 1,3 0,1 1,2 1,3l0 0 -7 0c0,0 -1,-1 -1,-3 0,-1 0,-2 0,-3l0 -3c0,-2 -1,-3 -2,-4 0,-1 -2,-1 -3,-1l-7 0zm0 -6l6 0c2,0 3,-1 4,-1 1,-1 2,-3 2,-4 0,-2 -1,-3 -2,-4 -1,-1 -2,-2 -4,-2l-6 0 0 11z"/>
  <polygon id="34" class="fil2 str0" points="485,326 478,326 478,290 485,290 "/>
  <path id="35" class="fil2 str0" d="M509 318l-11 0 -3 8 -6 0 11 -36 7 0 11 36 -6 0 -3 -8zm-10 -5l9 0 -4 -15 -1 0 -4 15z"/>
  <polygon id="36" class="fil2 str0" points="528,321 543,321 543,326 521,326 521,290 528,290 "/>
  <path id="37" class="fil2 str0" d="M565 317c0,-2 0,-3 -1,-4 -1,-1 -3,-1 -5,-2 -4,-1 -7,-3 -9,-5 -2,-1 -3,-4 -3,-7 0,-3 1,-5 3,-7 3,-2 6,-3 9,-3 4,0 7,1 9,3 3,2 4,5 4,8l0 0 -7 0c0,-1 -1,-3 -2,-4 -1,-1 -2,-1 -4,-1 -2,0 -3,0 -4,1 -1,1 -2,2 -2,3 0,2 1,3 2,3 1,1 3,2 5,3 4,1 7,2 9,4 2,2 3,5 3,8 0,3 -1,5 -4,7 -2,2 -5,3 -9,3 -3,0 -6,-1 -9,-3 -3,-2 -4,-5 -4,-9l0 0 6 0c0,2 1,4 2,5 2,1 3,1 5,1 2,0 4,0 5,-1 1,-1 1,-2 1,-3z"/>
  <polygon class="fil0 str0" points="589,331 675,331 728,258 682,202 "/>
 </g>
</svg>
