<?xml version="1.0" encoding="utf-8"?>
<!-- Generator: Adobe Illustrator 22.0.0, SVG Export Plug-In . SVG Version: 6.00 Build 0)  -->
<svg version="1.1" id="Layer_1" xmlns="http://www.w3.org/2000/svg" xmlns:xlink="http://www.w3.org/1999/xlink" x="0px" y="0px"
	 viewBox="0 0 212.8 64.4" style="enable-background:new 0 0 212.8 64.4;" xml:space="preserve">
<style type="text/css">
	.st0{fill-rule:evenodd;clip-rule:evenodd;fill:#FFFFFF;}
	.st1{fill:#FFFFFF;}
</style>
<polygon class="st0" points="53.9,64.3 109.7,64.2 106,54 63.3,53.9 53.9,64.3 "/>
<polygon class="st0" points="94.9,26.1 68.9,26.2 69,37 98.7,36.8 94.9,26.1 "/>
<polygon class="st0" points="54.2,0.3 85.3,0.4 88.8,11.2 63.4,11.1 54.2,0.3 "/>
<polygon class="st0" points="96,0.2 109.6,0 131.4,59 120.7,63.9 "/>
<polygon class="st0" points="149.3,20.8 140.2,8.4 122.4,59.5 131.6,63.9 "/>
<rect x="120.7" y="54" class="st0" width="10.7" height="10"/>
<polygon class="st1" points="196.6,64.4 212.8,64.2 185.5,30.7 206.4,0 192,0.1 169.3,30.8 169.3,30.8 169.3,30.8 169.3,30.9
	169.3,30.9 169.3,30.9 169.3,30.9 "/>
<polygon class="st0" points="145.6,64.1 162.2,64.1 172.5,50 163.7,39 "/>
<polygon class="st0" points="144.7,0 161.3,0 171.6,14.1 162.8,25 "/>
<path class="st1" d="M57.3,31.8c0,10.5-3.2,18.5-9.6,24.1c-6.4,5.6-15.7,8.3-27.8,8.3H0V0.6h22c11.2,0,19.8,2.8,26,8.2
	C54.2,14.3,57.3,22,57.3,31.8L57.3,31.8z M45.3,31.8c0-8.3-1.9-11.7-6.6-15.9c-4.7-4.2-9.2-4.8-18.4-4.8h-9.1l0.5,42.6h7.1
	c9.9,0,15.7-2.1,20.7-6.5C44.5,42.9,45.3,40.3,45.3,31.8L45.3,31.8z"/>
</svg>
