<?xml version="1.0" encoding="UTF-8"?>
<!DOCTYPE svg PUBLIC "-//W3C//DTD SVG 1.1//EN" "http://www.w3.org/Graphics/SVG/1.1/DTD/svg11.dtd">
<!-- Creator: CorelDRAW X7 -->
<svg xmlns="http://www.w3.org/2000/svg" xml:space="preserve" width="250px" height="89px" version="1.1" style="shape-rendering:geometricPrecision; text-rendering:geometricPrecision; image-rendering:optimizeQuality; fill-rule:evenodd; clip-rule:evenodd"
viewBox="0 0 159 56"
 xmlns:xlink="http://www.w3.org/1999/xlink">
 <defs>
  <style type="text/css">
   <![CDATA[
    .str0 {stroke:#FEFEFE;stroke-width:0.0968561}
    .fil0 {fill:#FEFEFE}
    .fil1 {fill:#FEFEFE;fill-rule:nonzero}
   ]]>
  </style>
 </defs>
 <g id="Layer_x0020_1">
  <metadata id="CorelCorpID_0Corel-Layer"/>
  <path class="fil0 str0" d="M0 22l0 -22 10 0c11,0 15,1 19,2 5,3 9,8 10,14 1,2 1,9 0,11 -1,8 -9,15 -17,16 -2,1 -6,1 -12,1l-10 0 0 -22 0 0zm20 14c3,-1 5,-2 7,-4 6,-5 5,-18 -2,-22 -3,-2 -5,-2 -11,-2l-6 0 0 14 0 15 5 0c3,0 6,-1 7,-1l0 0z"/>
  <path class="fil0 str0" d="M39 42c1,-1 3,-3 3,-3l1 -2 15 0 14 0 2 3c0,2 1,4 1,4 0,0 -9,0 -19,0l-19 0 2 -2z"/>
  <path class="fil0 str0" d="M47 25c0,0 0,-1 0,-3l0 -4 9 0 9 0 2 3c0,2 1,4 1,4 0,0 -20,1 -21,0l0 0z"/>
  <path class="fil0 str0" d="M42 5c-1,-1 -2,-2 -3,-3l-2 -2 11 0 10 0 2 4c0,2 1,3 1,3 0,0 -4,1 -9,1l-8 0 -2 -3 0 0z"/>
  <g id="_3219452105776">
   <polygon class="fil0 str0" points="66,0 75,0 90,40 83,44 "/>
   <polygon class="fil0 str0" points="103,14 96,6 84,41 90,44 "/>
   <rect class="fil0 str0" x="83" y="37" width="7.33678" height="6.81018"/>
  </g>
  <polygon class="fil0 str0" points="99,0 113,0 121,10 115,19 "/>
  <polygon class="fil0 str0" points="100,56 114,56 123,44 116,34 "/>
  <polygon class="fil0 str0" points="121,27 135,27 153,0 140,0 "/>
  <polygon class="fil0 str0" points="159,56 144,56 121,27 135,27 "/>
  <path class="fil1 str0" d="M1 53l0 2 -1 0 0 -6 2 0c1,0 2,0 2,1 0,0 1,0 1,1 0,1 -1,1 -1,1 0,1 -1,1 -2,1l-1 0zm0 -1l1 0c1,0 1,0 1,0 0,0 0,-1 0,-1 0,0 0,0 0,-1 0,0 0,0 -1,0l-1 0 0 2zm9 1c0,0 0,1 -1,2 0,0 -1,0 -1,0 -1,0 -2,0 -2,0 -1,-1 -1,-2 -1,-2l0 -1c0,-1 0,-2 1,-2 0,-1 1,-1 2,-1 0,0 1,0 1,1 1,0 1,1 1,2l0 1zm-1 -1c0,-1 0,-1 -1,-2 0,0 0,0 0,0 -1,0 -1,0 -1,0 -1,1 -1,1 -1,2l0 1c0,0 0,1 1,1 0,0 0,0 1,0 0,0 0,0 0,0 1,0 1,-1 1,-1l0 -1zm2 3l0 -6 2 0c0,0 1,0 1,1 1,0 1,1 1,2l0 1c0,0 0,1 -1,2 0,0 -1,0 -1,0l-2 0zm1 -5l0 4 1 0c0,0 0,0 1,0 0,0 0,-1 0,-1l0 -1c0,-1 0,-1 0,-2 -1,0 -1,0 -1,0l-1 0zm8 3l0 0c0,1 0,1 0,2 -1,0 -1,0 -2,0 -1,0 -1,0 -2,0 0,-1 0,-1 0,-2l0 -1c0,-1 0,-2 0,-2 1,-1 1,-1 2,-1 1,0 1,0 2,1 0,0 0,1 0,1l0 0 -1 0c0,0 0,-1 0,-1 0,0 -1,0 -1,0 0,0 -1,0 -1,0 0,1 0,1 0,2l0 1c0,0 0,1 0,1 1,0 1,0 1,0 1,0 1,0 1,0 0,0 0,0 0,-1l1 0zm4 1l-2 0 0 1 -1 0 2 -6 1 0 2 6 -1 0 -1 -1zm-2 -1l2 0 -1 -2 0 0 -1 2zm7 1c0,-1 0,-1 0,-1 0,0 0,0 -1,0 0,-1 -1,-1 -1,-1 -1,0 -1,-1 -1,-1 0,-1 0,-1 1,-2 0,0 1,0 1,0 1,0 1,0 2,1 0,0 0,0 0,1l0 0 -1 0c0,0 0,-1 0,-1 0,0 0,0 -1,0 0,0 0,0 0,0 -1,0 -1,0 -1,1 0,0 0,0 1,0 0,0 0,1 1,1 0,0 1,0 1,0 0,1 0,1 0,2 0,0 0,1 0,1 -1,0 -1,0 -2,0 0,0 -1,0 -1,0 -1,0 -1,-1 -1,-2l0 0 1 0c0,1 0,1 0,1 1,0 1,0 1,0 1,0 1,0 1,0 0,0 0,0 0,0zm6 -4l-1 0 0 5 -2 0 0 -5 -1 0 0 -1 4 0 0 1zm6 4l-2 0 -1 1 -1 0 2 -6 1 0 2 6 -1 0 0 -1zm-2 -1l2 0 -1 -2 0 0 -1 2zm9 2l-2 0 -2 -4 0 0 0 4 -1 0 0 -6 1 0 2 4 0 0 0 -4 2 0 0 6zm1 0l0 -6 2 0c0,0 1,0 1,1 1,0 1,1 1,2l0 1c0,0 0,1 -1,2 0,0 -1,0 -1,0l-2 0zm1 -5l0 4 0 0c1,0 1,0 1,0 1,0 1,-1 1,-1l0 -1c0,-1 0,-1 -1,-2 0,0 0,0 -1,0l0 0zm10 0l-2 0 0 5 -1 0 0 -5 -2 0 0 -1 5 0 0 1zm5 -1l0 4c0,1 0,1 -1,2 0,0 -1,0 -1,0 -1,0 -2,0 -2,0 -1,-1 -1,-1 -1,-2l0 -4 1 0 0 4c0,1 1,1 1,1 0,0 0,0 1,0 0,0 0,0 0,0 1,0 1,0 1,-1l0 -4 1 0zm5 1l-2 0 0 5 -1 0 0 -5 -2 0 0 -1 5 0 0 1zm5 3c0,0 0,1 -1,2 0,0 -1,0 -2,0 0,0 -1,0 -1,0 -1,-1 -1,-2 -1,-2l0 -1c0,-1 0,-2 1,-2 0,-1 1,-1 1,-1 1,0 2,0 2,1 1,0 1,1 1,2l0 1zm-1 -1c0,-1 0,-1 -1,-2 0,0 0,0 -1,0 0,0 0,0 0,0 -1,1 -1,1 -1,2l0 1c0,0 0,1 1,1 0,0 0,0 0,0 1,0 1,0 1,0 1,0 1,-1 1,-1l0 -1zm3 1l0 2 -1 0 0 -6 2 0c0,0 1,0 1,1 1,0 1,0 1,1 0,0 0,1 0,1 -1,0 -1,0 -1,0 0,0 1,1 1,1 0,0 0,0 0,1l0 0c0,0 0,1 0,1 0,0 0,0 0,0l0 0 -1 0c0,0 0,0 0,0 0,0 0,-1 0,-1l0 0c0,-1 0,-1 0,-1 -1,0 -1,0 -1,0l-1 0zm0 -1l1 0c0,0 0,0 1,0 0,-1 0,-1 0,-1 0,0 0,-1 0,-1 -1,0 -1,0 -1,0l-1 0 0 2zm5 3l-1 0 0 -6 1 0 0 6zm4 -1l-2 0 0 1 -1 0 2 -6 1 0 2 6 -1 0 -1 -1zm-1 -1l1 0 -1 -2 0 0 0 2zm5 1l2 0 0 1 -4 0 0 -6 2 0 0 5zm6 0c0,-1 0,-1 0,-1 -1,0 -1,0 -1,0 -1,-1 -1,-1 -2,-1 0,0 0,-1 0,-1 0,-1 0,-1 0,-2 1,0 1,0 2,0 0,0 1,0 1,1 1,0 1,0 1,1l0 0 -1 0c0,0 0,-1 0,-1 -1,0 -1,0 -1,0 -1,0 -1,0 -1,0 0,0 0,0 0,1 0,0 0,0 0,0 0,0 1,1 1,1 1,0 1,0 1,0 1,1 1,1 1,2 0,0 0,1 -1,1 0,0 -1,0 -1,0 -1,0 -1,0 -2,0 0,0 0,-1 0,-2l0 0 1 0c0,1 0,1 0,1 0,0 0,0 1,0 0,0 0,0 1,0 0,0 0,0 0,0z"/>
  <polygon class="fil0 str0" points="100,56 114,56 123,44 116,34 "/>
 </g>
</svg>
